
<svg xmlns="http://www.w3.org/2000/svg" width="140" height="45" viewBox="0 0 140 45" fill="none"> <path d="M50.6519 37.0428H48.4172C48.3699 37.0428 48.3345 37.0073 48.3345 36.9482L48.3581 23.4221C48.3581 23.3748 48.3936 23.3394 48.4527 23.3394H50.6401C50.6992 23.3394 50.7346 23.363 50.7346 23.4221L50.711 28.7782H53.6669V23.4221C53.6669 23.3748 53.6905 23.3394 53.7496 23.3394H55.937C55.9961 23.3394 56.0316 23.363 56.0316 23.4221L56.067 36.9482C56.067 37.0073 56.0316 37.0428 55.9724 37.0428H53.7733C53.7142 37.0428 53.6787 37.0073 53.6787 36.9482V31.1547H50.7228V36.9482C50.7228 37.0191 50.6992 37.0428 50.6519 37.0428Z" fill="#F9F9F9"></path> <path d="M60.0161 37.0428H57.7814C57.7223 37.0428 57.6868 37.0073 57.6868 36.9482L57.7105 23.4221C57.7105 23.3748 57.7341 23.3394 57.7932 23.3394H60.0042C60.0515 23.3394 60.087 23.363 60.087 23.4221L60.1106 36.9482C60.087 37.0191 60.0634 37.0428 60.0161 37.0428Z" fill="#F9F9F9"></path> <path d="M64.1306 37.0428H61.8959C61.8486 37.0428 61.8132 37.0073 61.8132 36.9482L61.8486 23.4221C61.8486 23.3748 61.8723 23.3394 61.9314 23.3394H65.9159C66.6253 23.3394 67.2756 23.5167 67.8786 23.8596C68.4698 24.2025 68.9546 24.6754 69.3093 25.2548C69.664 25.8341 69.8413 26.4962 69.8413 27.2411C69.8413 27.7259 69.7704 28.1633 69.6167 28.5535C69.4748 28.9437 69.2974 29.2747 69.0964 29.5467C68.8954 29.8186 68.7181 30.0196 68.5644 30.1379C69.2738 30.93 69.6285 31.8523 69.6285 32.9164L69.6521 36.96C69.6521 37.0191 69.6167 37.0546 69.5576 37.0546H67.3229C67.2756 37.0546 67.2402 37.031 67.2402 36.9955V32.9164C67.2402 32.4434 67.0746 32.0296 66.7436 31.6867C66.4125 31.3439 65.9987 31.1665 65.5139 31.1665H64.2133L64.1897 36.96C64.2015 37.0191 64.1779 37.0428 64.1306 37.0428ZM65.9159 25.7041H64.2252V28.8018H65.9159C66.3179 28.8018 66.6844 28.6481 66.9919 28.3525C67.3111 28.0569 67.4648 27.6786 67.4648 27.2411C67.4648 26.8273 67.3111 26.4608 67.0037 26.1652C66.7081 25.8578 66.3416 25.7041 65.9159 25.7041Z" fill="#F9F9F9"></path> <path d="M77.7513 37.0428H71.3903C71.343 37.0428 71.3075 37.0073 71.3075 36.9482L71.3311 23.4221C71.3311 23.3748 71.3548 23.3394 71.4139 23.3394H77.7395C77.7868 23.3394 77.8222 23.3748 77.8222 23.4339V25.6331C77.8222 25.6804 77.7986 25.7159 77.7395 25.7159H73.6958V28.79H77.7395C77.7868 28.79 77.8222 28.8136 77.8222 28.8727L77.8459 31.1074C77.8459 31.1547 77.8222 31.1902 77.7631 31.1902H73.7077V34.6308H77.7631C77.8104 34.6308 77.8459 34.6663 77.8459 34.7254V36.9718C77.8341 37.0191 77.7986 37.0428 77.7513 37.0428Z" fill="#F9F9F9"></path> <path d="M82.93 37.2438C82.2324 37.2438 81.5821 37.0665 81.0028 36.6999C80.4234 36.3452 79.9505 35.8605 79.6076 35.2575C79.2529 34.6545 79.0873 34.0042 79.0873 33.2829V32.3844C79.0873 32.3134 79.1228 32.2779 79.1819 32.2779H81.3929C81.4402 32.2779 81.4757 32.3134 81.4757 32.3844V33.2829C81.4757 33.7086 81.6176 34.0869 81.9132 34.3943C82.1969 34.7018 82.5516 34.8555 82.9536 34.8555C83.3675 34.8555 83.7103 34.7018 84.0059 34.3825C84.3015 34.0633 84.4434 33.6968 84.4434 33.2829C84.4434 32.7982 84.1242 32.3844 83.4975 32.0178C83.3911 31.9587 83.261 31.8759 83.0955 31.7814C82.93 31.6868 82.7408 31.5804 82.5162 31.4621C82.2915 31.3439 82.0787 31.2257 81.8659 31.1074C81.653 30.9892 81.452 30.8709 81.251 30.7645C80.5298 30.3389 79.9978 29.8068 79.6549 29.1684C79.3002 28.5299 79.1346 27.8087 79.1346 27.0165C79.1346 26.2834 79.312 25.6213 79.6785 25.0301C80.0332 24.4508 80.5062 23.9897 81.0855 23.635C81.6649 23.2921 82.2915 23.1147 82.9773 23.1147C83.6749 23.1147 84.3133 23.2921 84.9045 23.635C85.4839 23.9897 85.9568 24.4508 86.2997 25.042C86.6544 25.6213 86.8199 26.2834 86.8199 27.0047V28.6245C86.8199 28.6718 86.7963 28.7073 86.7371 28.7073H84.5261C84.4789 28.7073 84.4434 28.6836 84.4434 28.6245L84.4197 27.0047C84.4197 26.5436 84.2779 26.1652 83.9823 25.8814C83.6985 25.5977 83.3556 25.444 82.9536 25.444C82.5516 25.444 82.2087 25.5977 81.9132 25.9051C81.6294 26.2125 81.4757 26.579 81.4757 27.0047C81.4757 27.4303 81.5703 27.7968 81.7476 28.0806C81.925 28.3644 82.2679 28.6481 82.7526 28.9083C82.7999 28.9319 82.9182 29.0028 83.1073 29.0974C83.2965 29.2038 83.4975 29.3103 83.7222 29.4403C83.9468 29.5704 84.1596 29.6768 84.337 29.7714C84.5261 29.866 84.6326 29.9251 84.668 29.9487C85.3183 30.3152 85.8386 30.7645 86.2169 31.2966C86.5953 31.8287 86.7844 32.4789 86.7844 33.2593C86.7844 34.0042 86.6071 34.6781 86.2642 35.2811C85.9095 35.8723 85.4484 36.3452 84.8572 36.6999C84.2897 37.0665 83.6394 37.2438 82.93 37.2438Z" fill="#F9F9F9"></path> <path d="M96.6216 37.2438C95.924 37.2438 95.2737 37.0665 94.6943 36.6999C94.115 36.3452 93.642 35.8605 93.2992 35.2575C92.9445 34.6545 92.7789 34.0042 92.7789 33.2829V32.3844C92.7789 32.3134 92.8144 32.2779 92.8735 32.2779H95.0845C95.1318 32.2779 95.1673 32.3134 95.1673 32.3844V33.2829C95.1673 33.7086 95.3092 34.0869 95.6047 34.3943C95.8885 34.7018 96.2432 34.8555 96.6452 34.8555C97.059 34.8555 97.4019 34.7018 97.6975 34.3825C97.9813 34.0633 98.135 33.6968 98.135 33.2829C98.135 32.7982 97.8157 32.3844 97.1891 32.0178C97.0827 31.9587 96.9526 31.8759 96.7871 31.7814C96.6216 31.6868 96.4324 31.5804 96.2077 31.4621C95.9831 31.3439 95.7703 31.2257 95.5575 31.1074C95.3446 30.9892 95.1436 30.8709 94.9426 30.7645C94.2214 30.3389 93.6893 29.8068 93.3464 29.1684C92.9917 28.5299 92.8262 27.8087 92.8262 27.0165C92.8262 26.2834 93.0036 25.6213 93.3701 25.0301C93.7248 24.4508 94.1978 23.9897 94.7771 23.635C95.3565 23.2921 95.9831 23.1147 96.6689 23.1147C97.3664 23.1147 98.0049 23.2921 98.5961 23.635C99.1754 23.9897 99.6484 24.4508 99.9913 25.042C100.346 25.6213 100.511 26.2834 100.511 27.0047V28.6245C100.511 28.6718 100.488 28.7073 100.429 28.7073H98.2177C98.1704 28.7073 98.135 28.6836 98.135 28.6245L98.1113 27.0047C98.1113 26.5436 97.9694 26.1652 97.6739 25.8814C97.3901 25.5977 97.0472 25.444 96.6452 25.444C96.2432 25.444 95.9003 25.5977 95.6047 25.9051C95.321 26.2125 95.1673 26.579 95.1673 27.0047C95.1673 27.4303 95.2619 27.7968 95.4392 28.0806C95.6166 28.3644 95.9594 28.6481 96.4442 28.9083C96.4915 28.9319 96.6097 29.0028 96.7989 29.0974C96.9881 29.2038 97.1891 29.3103 97.4137 29.4403C97.6384 29.5704 97.8512 29.6768 98.0286 29.7714C98.2177 29.866 98.3241 29.9251 98.3596 29.9487C99.0099 30.3152 99.5301 30.7645 99.9085 31.2966C100.287 31.8287 100.476 32.4789 100.476 33.2593C100.476 34.0042 100.299 34.6781 99.9558 35.2811C99.6011 35.8723 99.14 36.3452 98.5488 36.6999C97.9694 37.0665 97.331 37.2438 96.6216 37.2438Z" fill="#F9F9F9"></path> <path d="M106.045 37.0428H103.822C103.763 37.0428 103.739 37.0073 103.739 36.9482V25.7159H101.185C101.126 25.7159 101.091 25.6804 101.091 25.6213L101.114 23.4221C101.114 23.3748 101.138 23.3394 101.197 23.3394H108.682C108.752 23.3394 108.788 23.363 108.788 23.4221V25.6213C108.788 25.6804 108.764 25.7159 108.705 25.7159H106.116L106.139 36.9482C106.128 37.0191 106.104 37.0428 106.045 37.0428Z" fill="#F9F9F9"></path> <path d="M113.34 37.2438C112.642 37.2438 112.004 37.0664 111.413 36.6999C110.822 36.3452 110.349 35.8604 110.006 35.2574C109.651 34.6544 109.486 33.9923 109.486 33.2711L109.521 23.4221C109.521 23.3748 109.545 23.3394 109.604 23.3394H111.815C111.862 23.3394 111.898 23.363 111.898 23.4221V33.2711C111.898 33.7086 112.039 34.0869 112.323 34.4061C112.607 34.7136 112.95 34.8673 113.352 34.8673C113.777 34.8673 114.132 34.7136 114.404 34.4061C114.688 34.0987 114.83 33.7204 114.83 33.2711V23.4221C114.83 23.3748 114.853 23.3394 114.913 23.3394H117.124C117.171 23.3394 117.206 23.363 117.206 23.4221L117.242 33.2711C117.242 33.9923 117.064 34.6663 116.722 35.2693C116.367 35.8723 115.906 36.3452 115.315 36.7117C114.723 37.0546 114.073 37.2438 113.34 37.2438Z" fill="#F9F9F9"></path> <path d="M122.397 37.0308L118.873 37.0545C118.814 37.0545 118.779 37.019 118.779 36.9599L118.814 23.4338C118.814 23.3865 118.838 23.3511 118.897 23.3511L122.574 23.3274C123.307 23.3038 123.969 23.4693 124.56 23.824C125.152 24.1787 125.636 24.6516 125.991 25.2546C126.346 25.8576 126.523 26.5198 126.523 27.241V32.8926C126.523 33.6493 126.346 34.3469 125.979 34.9735C125.613 35.6002 125.116 36.085 124.501 36.4633C123.875 36.818 123.177 37.019 122.397 37.0308ZM122.574 25.6803L121.203 25.7039L121.179 34.6307H122.397C122.882 34.6307 123.295 34.4651 123.626 34.1223C123.957 33.7794 124.123 33.3774 124.123 32.9044V27.2292C124.123 26.8153 123.969 26.4488 123.662 26.1414C123.366 25.8222 123 25.6685 122.574 25.6803Z" fill="#F9F9F9"></path> <path d="M130.389 37.0428H128.155C128.096 37.0428 128.06 37.0073 128.06 36.9482L128.084 23.4221C128.084 23.3748 128.107 23.3394 128.167 23.3394H130.378C130.425 23.3394 130.46 23.363 130.46 23.4221L130.484 36.9482C130.472 37.0191 130.449 37.0428 130.389 37.0428Z" fill="#F9F9F9"></path> <path d="M135.84 37.2438C135.143 37.2438 134.492 37.0665 133.913 36.6999C133.334 36.3452 132.861 35.8605 132.506 35.2575C132.151 34.6545 131.974 34.0042 131.974 33.2829L131.997 27.0401C131.997 26.3071 132.175 25.6568 132.53 25.0656C132.872 24.4744 133.345 24.0015 133.937 23.6468C134.528 23.2921 135.166 23.1147 135.864 23.1147C136.585 23.1147 137.223 23.2921 137.791 23.6468C138.37 24.0015 138.831 24.4744 139.186 25.0656C139.541 25.6568 139.706 26.3189 139.706 27.0401L139.73 33.2829C139.73 34.0042 139.553 34.6545 139.21 35.2575C138.855 35.8605 138.394 36.3452 137.803 36.6999C137.2 37.0546 136.549 37.2438 135.84 37.2438ZM135.84 34.8673C136.242 34.8673 136.585 34.7018 136.881 34.3825C137.176 34.0633 137.318 33.6968 137.318 33.2948L137.294 27.052C137.294 26.6145 137.153 26.248 136.881 25.9406C136.609 25.645 136.254 25.4913 135.828 25.4913C135.426 25.4913 135.083 25.6331 134.788 25.9287C134.492 26.2243 134.35 26.5908 134.35 27.0401V33.2829C134.35 33.7086 134.492 34.0869 134.788 34.3943C135.095 34.7136 135.438 34.8673 135.84 34.8673Z" fill="#F9F9F9"></path> <path d="M39.4314 14.9567C38.3672 14.6729 37.2322 14.8857 36.2981 15.4533L23.4697 23.1977C22.4528 23.8125 21.838 24.9121 21.838 26.0944V33.6969C21.838 34.8674 22.4647 35.967 23.4697 36.57L36.4164 44.2789C37.043 44.6455 37.7406 44.8346 38.4382 44.8346C39.4432 44.8346 40.4482 44.4563 41.2167 43.6878C41.9971 42.9192 42.3872 41.8433 42.3872 40.7437V18.7875C42.3872 17.0258 41.2167 15.4296 39.4314 14.9567ZM28.1518 28.5064C28.1518 28.0335 28.4 27.6078 28.802 27.3595L34.0517 24.1908C34.9384 23.6588 36.0735 24.2972 36.0735 25.3377V34.5718C36.0735 35.5177 35.0448 36.0971 34.2408 35.6123L28.8139 32.3845C28.4119 32.148 28.1636 31.7106 28.1636 31.2376V28.5064H28.1518Z" fill="#F9F9F9"></path> <path d="M2.95587 29.8779C4.01999 30.1617 5.15504 29.9489 6.0891 29.3814L18.9176 21.637C19.9344 21.0222 20.5492 19.9226 20.5492 18.7402V11.1377C20.5492 9.9672 19.9226 8.86761 18.9176 8.26462L5.97086 0.555705C5.34422 0.189177 4.64663 0 3.94904 0C2.94405 0 1.93905 0.378353 1.17052 1.14688C0.390174 1.91541 0 2.99134 0 4.09093V26.0471C0 27.8088 1.17053 29.405 2.95587 29.8779ZM14.2355 16.3282C14.2355 16.8012 13.9872 17.2268 13.5852 17.4751L8.34738 20.6438C7.46062 21.1759 6.32557 20.5374 6.32557 19.4969V10.2628C6.32557 9.31691 7.35421 8.73756 8.15821 9.22232L13.5852 12.4501C13.9872 12.6866 14.2355 13.1241 14.2355 13.597V16.3282Z" fill="#F9F9F9"></path></svg>